<svg width="60" height="101" viewBox="0 0 60 101" fill="none" xmlns="http://www.w3.org/2000/svg">
<g id="door">
<path id="Vector" d="M59.0035 100.001H0.0274742V27.8429C0.0111948 21.9602 1.98409 16.2263 5.65891 11.4758C5.79437 11.3015 5.92949 11.1294 6.06884 10.9592C7.84633 8.75805 9.96159 6.81953 12.3448 5.20762C12.4794 5.11513 12.6146 5.02425 12.7518 4.93337C14.746 3.63035 16.9032 2.56517 19.1743 1.76205C19.3091 1.71379 19.4464 1.66543 19.5837 1.61904C21.6377 0.926954 23.7669 0.452875 25.932 0.205562C26.0662 0.188249 26.204 0.174702 26.3419 0.161155C28.4517 -0.0518466 30.5796 -0.0518466 32.6895 0.161155C32.8269 0.174702 32.9647 0.188248 33.1006 0.205747C35.2651 0.453077 37.3937 0.927097 39.4472 1.61905C39.5845 1.66544 39.7219 1.71379 39.8571 1.76215C42.1002 2.55514 44.232 3.60443 46.205 4.88661C46.342 4.97552 46.4792 5.0664 46.6144 5.15728C47.9503 6.05763 49.2051 7.06066 50.3659 8.15615C51.2969 9.03485 52.1644 9.9715 52.9626 10.9598C53.1015 11.1294 53.2366 11.3015 53.3718 11.4755C57.0468 16.226 59.0198 21.9601 59.0035 27.8429V100.001Z" fill="#CCCCCC"/>
<path id="door-knob" d="M54.2081 67.7277C56.0114 67.7277 57.4733 66.3474 57.4733 64.6448C57.4733 62.9422 56.0114 61.5619 54.2081 61.5619C52.4048 61.5619 50.943 62.9422 50.943 64.6448C50.943 66.3474 52.4048 67.7277 54.2081 67.7277Z" fill="white"/>
<g id="door-window">
<path id="Vector_2" d="M42.7801 79.0958H16.2512C15.9018 79.0976 15.566 78.9684 15.3173 78.7367C15.0686 78.505 14.9275 78.1896 14.9248 77.8597V21.9499C14.9275 21.62 15.0686 21.3046 15.3173 21.0729C15.566 20.8411 15.9018 20.712 16.2512 20.7138H42.7801C43.1295 20.712 43.4654 20.8411 43.714 21.0729C43.9627 21.3046 44.1039 21.62 44.1066 21.9499V77.8597C44.1039 78.1896 43.9627 78.505 43.714 78.7367C43.4654 78.9684 43.1295 79.0976 42.7801 79.0958V79.0958Z" fill="white"/>
<path id="Vector_3" d="M44.1066 38.8043H14.9248V39.1897H44.1066V38.8043Z" fill="#CCCCCC"/>
<path id="Vector_4" d="M44.2082 60.7912H15.0264V61.1766H44.2082V60.7912Z" fill="#CCCCCC"/>
<path id="Vector_5" d="M24.516 20.7138H24.1079V79.2885H24.516V20.7138Z" fill="#CCCCCC"/>
<path id="Vector_6" d="M34.7193 20.7138H34.3111V79.2885H34.7193V20.7138Z" fill="#CCCCCC"/>
</g>
</g>
</svg>
