<svg width="59" height="100" viewBox="0 0 59 100" fill="none" xmlns="http://www.w3.org/2000/svg">
<g id="door-robo">
<path id="Vector" d="M58.9761 100H9.99434e-05V27.8415C-0.0161795 21.9588 1.95671 16.2249 5.63154 11.4744C5.767 11.3001 5.90212 11.128 6.04147 10.9578C7.81895 8.75665 9.93422 6.81812 12.3174 5.20621C12.4521 5.11373 12.5872 5.02285 12.7244 4.93196C14.7186 3.62895 16.8758 2.56376 19.1469 1.76065C19.2818 1.71238 19.4191 1.66402 19.5564 1.61764C21.6104 0.92555 23.7396 0.451471 25.9046 0.204158C26.0389 0.186846 26.1767 0.173298 26.3145 0.159751C28.4244 -0.0532503 30.5523 -0.0532503 32.6621 0.159751C32.7996 0.173298 32.9374 0.186844 33.0732 0.204343C35.2377 0.451673 37.3663 0.925694 39.4198 1.61765C39.5572 1.66403 39.6945 1.71239 39.8297 1.76075C42.0728 2.55373 44.2046 3.60302 46.1776 4.88521C46.3147 4.97412 46.4519 5.065 46.587 5.15588C47.9229 6.05622 49.1777 7.05926 50.3386 8.15475C51.2695 9.03345 52.137 9.97009 52.9352 10.9584C53.0741 11.128 53.2092 11.3001 53.3444 11.4741C57.0194 16.2246 58.9924 21.9587 58.9761 27.8415V100Z" fill="#F2F2F2"/>
<g id="robot" clip-path="url(#clip0)">
<g id="robo-body">
<path id="Vector_2" d="M40.1824 62.8463H38.233V56.3476H40.1824C41.2593 56.3476 42.1322 57.2204 42.1322 58.2974V60.8968C42.1322 61.9734 41.2593 62.8463 40.1824 62.8463Z" fill="#607D8B"/>
<path id="Vector_3" d="M47.3311 70.645C47.3311 71.7216 46.4583 72.5944 45.3816 72.5944C45.1005 72.5953 44.823 72.5331 44.5692 72.4127C43.8766 72.097 43.4322 71.4059 43.4322 70.645C43.4322 69.8837 43.8766 69.1929 44.5692 68.8773C44.823 68.7568 45.1005 68.6946 45.3816 68.6952C46.4583 68.6952 47.3311 69.568 47.3311 70.645V70.645Z" fill="#1566C0"/>
<path id="Vector_4" d="M16.7869 56.3476H18.7367V62.8463H16.7869C15.7103 62.8463 14.8375 61.9734 14.8375 60.8968V58.2974C14.8375 57.2204 15.7103 56.3476 16.7869 56.3476Z" fill="#607D8B"/>
<path id="Vector_5" d="M13.5375 70.645C13.5375 71.7216 12.6646 72.5944 11.588 72.5944C11.3069 72.5953 11.0293 72.5331 10.7756 72.4127C10.083 72.097 9.63855 71.4059 9.63855 70.645C9.63855 69.8837 10.083 69.1929 10.7756 68.8773C11.0293 68.7568 11.3069 68.6946 11.588 68.6952C12.6646 68.6952 13.5375 69.568 13.5375 70.645V70.645Z" fill="#1566C0"/>
<path id="Vector_6" d="M45.7065 70.645C45.708 71.4065 45.2629 72.0985 44.5692 72.4127C43.8766 72.097 43.4322 71.4059 43.4322 70.645C43.4322 69.8837 43.8766 69.1929 44.5692 68.8773C45.2629 69.1914 45.708 69.8834 45.7065 70.645V70.645Z" fill="#02A9F4"/>
<path id="Vector_7" d="M11.9129 70.645C11.9146 71.4065 11.4693 72.0985 10.7756 72.4127C10.083 72.097 9.63855 71.4059 9.63855 70.645C9.63855 69.8837 10.083 69.1929 10.7756 68.8773C11.4693 69.1914 11.9146 69.8834 11.9129 70.645Z" fill="#02A9F4"/>
<path id="Vector_8" d="M35.6335 74.5442C35.6344 76.4404 34.8814 78.2592 33.5407 79.6003C32.1999 80.9411 30.381 81.6937 28.4848 81.6929C28.2129 81.6952 27.9416 81.6777 27.6724 81.6408C24.0609 81.235 21.332 78.1786 21.3362 74.5442H35.6335Z" fill="#1566C0"/>
<path id="Vector_9" d="M34.0086 74.5442C34.0128 78.1786 31.2839 81.235 27.6724 81.6408C24.0609 81.235 21.332 78.1786 21.3362 74.5442H34.0086Z" fill="#2296F3"/>
<path id="Vector_10" d="M38.8827 55.0479V72.5944C38.8827 74.0301 37.7189 75.1942 36.2832 75.1942H20.6861C19.2505 75.1942 18.0867 74.0301 18.0867 72.5944V55.0479C18.084 49.6818 22.1673 45.1959 27.51 44.6952C27.8339 44.6637 28.1594 44.6485 28.4848 44.65C31.2435 44.6461 33.8905 45.7406 35.8412 47.6913C37.7921 49.6422 38.8863 52.289 38.8827 55.0479V55.0479Z" fill="#283593"/>
<path id="Vector_11" d="M36.9333 55.0479V72.5944C36.9333 74.0301 35.7692 75.1942 34.3338 75.1942H20.6861C19.2505 75.1942 18.0867 74.0301 18.0867 72.5944V55.0479C18.084 49.6818 22.1673 45.1959 27.51 44.6952C32.855 45.1914 36.9407 49.68 36.9333 55.0479V55.0479Z" fill="#3F51B5"/>
<path id="Vector_12" d="M36.2832 54.8334V59.3826C36.2779 59.7904 36.1104 60.1793 35.8179 60.4634C35.5252 60.7478 35.1313 60.9037 34.7235 60.8968H22.2459C22.032 60.8965 21.8199 60.8546 21.622 60.7734C21.3959 60.6755 21.1957 60.5264 21.0372 60.3378C20.8099 60.0716 20.6852 59.7327 20.6861 59.3826V55.0999C20.6823 51.0969 23.6935 47.7329 27.6724 47.295C27.7634 47.2819 27.861 47.2754 27.9517 47.2688C30.1112 47.1162 32.2382 47.859 33.8331 49.3224C34.0955 49.5565 34.3388 49.8109 34.561 50.0828C35.6734 51.4161 36.2829 53.0972 36.2832 54.8334V54.8334Z" fill="#00838F"/>
<path id="Vector_13" d="M34.6586 54.8334V59.3826C34.6533 59.7904 34.4858 60.1793 34.1931 60.4634C33.9003 60.7478 33.5068 60.9037 33.0989 60.8968H22.2459C22.032 60.8965 21.8199 60.8546 21.622 60.7734C21.3959 60.6755 21.1957 60.5264 21.0372 60.3378C20.8099 60.0716 20.6852 59.7327 20.6861 59.3826V55.0999C20.6823 51.0969 23.6935 47.7329 27.6724 47.295C29.3654 47.4565 30.9588 48.1687 32.2085 49.3224C32.4706 49.5565 32.7139 49.8109 32.9365 50.0828C34.0488 51.4161 34.6583 53.0972 34.6586 54.8334V54.8334Z" fill="#00BCD4"/>
<path id="Vector_14" d="M18.0867 63.4963H38.8827V66.0957H18.0867V63.4963Z" fill="#1566C0"/>
<path id="Vector_15" d="M18.0867 63.4963H36.9332V66.0957H18.0867V63.4963Z" fill="#2296F3"/>
<path id="Vector_16" d="M24.5856 70.645C24.5856 71.7216 23.7125 72.5944 22.6359 72.5944C21.559 72.5944 20.6861 71.7216 20.6861 70.645C20.6861 69.5681 21.559 68.6952 22.6359 68.6952C23.7125 68.6952 24.5856 69.5681 24.5856 70.645V70.645Z" fill="#607D8B"/>
<path id="Vector_17" d="M35.6335 71.2947H34.3338C33.9747 71.2947 33.6837 71.0037 33.6837 70.645V69.3452C33.6837 68.9862 33.9747 68.6952 34.3338 68.6952H35.6335C35.9923 68.6952 36.2832 68.9862 36.2832 69.3452V70.645C36.2832 71.0037 35.9923 71.2947 35.6335 71.2947V71.2947Z" fill="#607D8B"/>
<path id="Vector_18" d="M27.1851 51.7984C27.1851 52.5162 26.6032 53.0981 25.8854 53.0981C25.1675 53.0981 24.5856 52.5162 24.5856 51.7984C24.5856 51.0806 25.1675 50.4987 25.8854 50.4987C26.6032 50.4987 27.1851 51.0806 27.1851 51.7984Z" fill="#F44335"/>
<path id="Vector_19" d="M32.384 51.7984C32.384 52.5162 31.8021 53.0981 31.0843 53.0981C30.3664 53.0981 29.7845 52.5162 29.7845 51.7984C29.7845 51.0806 30.3664 50.4987 31.0843 50.4987C31.8021 50.4987 32.384 51.0806 32.384 51.7984Z" fill="#F44335"/>
<path id="Vector_20" d="M30.4343 78.4434C30.4343 77.7255 29.5614 77.1436 28.4848 77.1436C27.4079 77.1436 26.5351 77.7255 26.5351 78.4434C26.5351 79.1612 27.4079 79.7431 28.4848 79.7431C29.5614 79.7431 30.4343 79.1612 30.4343 78.4434Z" fill="#2C3E50"/>
<path id="Vector_21" d="M22.2459 61.5465H34.7235C35.9313 61.5573 36.9195 60.5883 36.9332 59.3805V54.8316C36.935 52.5784 35.9937 50.4276 34.3376 48.9C32.5994 47.2882 30.2742 46.4629 27.9089 46.6182C23.4644 46.938 20.0251 50.6426 20.0364 55.0984V59.3805C20.0498 60.5883 21.0383 61.5573 22.2459 61.5465V61.5465ZM34.7235 60.2468H22.2459C21.7559 60.2581 21.3489 59.8708 21.3361 59.3805V57.6473H25.2353C25.4525 57.6473 25.6554 57.5391 25.7762 57.3582L26.3902 56.436L27.2312 58.5389C27.3201 58.765 27.5281 58.9227 27.7699 58.9471H27.8348C28.052 58.9471 28.2549 58.8388 28.3756 58.6579L29.4823 56.9976H35.6335V59.3805C35.6207 59.8708 35.2137 60.2581 34.7235 60.2468ZM27.9934 47.9156C28.1528 47.9046 28.312 47.8992 28.4711 47.8992C30.3173 47.8959 32.0963 48.5926 33.449 49.8489C34.8413 51.1317 35.6332 52.9384 35.6335 54.8316V55.6979H29.1345C28.9174 55.6976 28.7145 55.8062 28.594 55.9871L27.9797 56.9093L27.139 54.806C27.0491 54.582 26.8427 54.4261 26.6026 54.4011C26.3628 54.3782 26.1296 54.4877 25.9945 54.6873L24.8876 56.3476H21.3361V55.0984C21.3233 51.3272 24.2319 48.189 27.9934 47.9156Z" fill="black"/>
<path id="Vector_22" d="M23.2856 64.1463H23.9356C24.2944 64.1463 24.5856 63.8551 24.5856 63.4963C24.5856 63.1375 24.2944 62.8463 23.9356 62.8463H23.2856C22.9268 62.8463 22.6359 63.1375 22.6359 63.4963C22.6359 63.8551 22.9268 64.1463 23.2856 64.1463Z" fill="black"/>
<path id="Vector_23" d="M23.2856 66.7458H23.9356C24.2944 66.7458 24.5856 66.4548 24.5856 66.0958C24.5856 65.737 24.2944 65.446 23.9356 65.446H23.2856C22.9268 65.446 22.6359 65.737 22.6359 66.0958C22.6359 66.4548 22.9268 66.7458 23.2856 66.7458Z" fill="black"/>
<path id="Vector_24" d="M22.6359 68.0455C22.1733 68.0476 21.7199 68.1749 21.3236 68.4138L21.1457 68.2359C20.8908 67.9896 20.4853 67.9931 20.2345 68.2436C19.984 68.4944 19.9805 68.8999 20.2268 69.1548L20.4047 69.3327C20.1658 69.729 20.0385 70.1824 20.0364 70.645C20.0364 72.0806 21.2002 73.2444 22.6359 73.2444C23.0985 73.242 23.5518 73.1147 23.9478 72.8758L24.126 73.054C24.3809 73.3004 24.7864 73.2968 25.0369 73.046C25.2877 72.7955 25.2913 72.39 25.0449 72.1351L24.8667 71.9569C25.1056 71.5609 25.233 71.1076 25.2353 70.645C25.2353 69.2093 24.0716 68.0455 22.6359 68.0455V68.0455ZM21.3361 70.645C21.3358 70.3008 21.4727 69.9706 21.7163 69.7272C22.228 69.2471 23.0286 69.2598 23.5248 69.7561C24.021 70.2523 24.0338 71.0528 23.5533 71.5645C23.1815 71.9352 22.6231 72.0458 22.1379 71.8447C21.653 71.6433 21.3364 71.17 21.3361 70.645V70.645Z" fill="black"/>
<path id="Vector_25" d="M34.3338 71.9447H35.6335C36.3513 71.9447 36.9332 71.3628 36.9332 70.645V69.3452C36.9332 68.6274 36.3513 68.0455 35.6335 68.0455H34.3338C33.6159 68.0455 33.0338 68.6274 33.0338 69.3452V70.645C33.0338 71.3628 33.6159 71.9447 34.3338 71.9447V71.9447ZM34.3338 69.3452H35.6335V70.645H34.3338V69.3452Z" fill="black"/>
<path id="Vector_26" d="M30.4343 69.3452H31.0843C31.443 69.3452 31.734 69.0543 31.734 68.6952C31.734 68.3364 31.443 68.0455 31.0843 68.0455H30.4343C30.0755 68.0455 29.7845 68.3364 29.7845 68.6952C29.7845 69.0543 30.0755 69.3452 30.4343 69.3452V69.3452Z" fill="black"/>
<path id="Vector_27" d="M30.4343 71.9447H31.0843C31.443 71.9447 31.734 71.6538 31.734 71.2947C31.734 70.9359 31.443 70.645 31.0843 70.645H30.4343C30.0755 70.645 29.7845 70.9359 29.7845 71.2947C29.7845 71.6538 30.0755 71.9447 30.4343 71.9447V71.9447Z" fill="black"/>
<path id="Vector_28" d="M25.8854 53.7481C26.962 53.7481 27.8348 52.8753 27.8348 51.7984C27.8348 50.7218 26.962 49.8489 25.8854 49.8489C24.8084 49.8489 23.9356 50.7218 23.9356 51.7984C23.9356 52.8753 24.8084 53.7481 25.8854 53.7481ZM25.8854 51.1487C26.2441 51.1487 26.5351 51.4396 26.5351 51.7984C26.5351 52.1575 26.2441 52.4484 25.8854 52.4484C25.5263 52.4484 25.2353 52.1575 25.2353 51.7984C25.2353 51.4396 25.5263 51.1487 25.8854 51.1487Z" fill="black"/>
<path id="Vector_29" d="M31.0843 53.7481C32.1609 53.7481 33.0337 52.8753 33.0337 51.7984C33.0337 50.7218 32.1609 49.8489 31.0843 49.8489C30.0074 49.8489 29.1346 50.7218 29.1346 51.7984C29.1346 52.8753 30.0074 53.7481 31.0843 53.7481V53.7481ZM31.0843 51.1487C31.4431 51.1487 31.734 51.4396 31.734 51.7984C31.734 52.1575 31.4431 52.4484 31.0843 52.4484C30.7252 52.4484 30.4343 52.1575 30.4343 51.7984C30.4343 51.4396 30.7252 51.1487 31.0843 51.1487V51.1487Z" fill="black"/>
<path id="Vector_30" d="M28.4848 80.3931C29.9425 80.3931 31.0843 79.5367 31.0843 78.4434C31.0843 77.3504 29.9425 76.4939 28.4848 76.4939C27.0271 76.4939 25.8854 77.3504 25.8854 78.4434C25.8854 79.5367 27.0271 80.3931 28.4848 80.3931ZM28.4848 77.7937C29.2782 77.7937 29.7846 78.1783 29.7846 78.4434C29.7846 78.7087 29.2782 79.0934 28.4848 79.0934C27.6911 79.0934 27.1851 78.7087 27.1851 78.4434C27.1851 78.1783 27.6911 77.7937 28.4848 77.7937Z" fill="black"/>
<path id="Vector_31" d="M9.64988 73.8944C9.64988 74.2532 9.94083 74.5442 10.2999 74.5442C10.6587 74.5442 10.9496 74.2532 10.9496 73.8944V73.1522C11.1614 73.2108 11.3798 73.2417 11.5996 73.2444C11.8192 73.2417 12.0378 73.2108 12.2494 73.1522V73.8944C12.2494 74.2532 12.5403 74.5442 12.8994 74.5442C13.2581 74.5442 13.5491 74.2532 13.5491 73.8944V72.3463C14.1473 71.6731 14.3502 70.7363 14.0846 69.8759C13.8186 69.0156 13.1231 68.3564 12.2494 68.1377V61.5465C12.2494 60.8287 12.8312 60.2468 13.5491 60.2468H14.1991V60.8968C14.1991 62.3325 15.3629 63.4963 16.7986 63.4963H17.4486V72.5944C17.4507 74.3883 18.9042 75.8418 20.6978 75.8439H20.7311C21.0622 79.8874 24.4402 83 28.4971 83C32.5539 83 35.9319 79.8874 36.263 75.8439H36.2949C38.0887 75.8418 39.5423 74.3883 39.5443 72.5944V63.4963H40.1941C41.6297 63.4963 42.7935 62.3325 42.7935 60.8968V60.2468H43.4435C44.1614 60.2468 44.7433 60.8287 44.7433 61.5465V68.1377C43.8698 68.3564 43.174 69.0156 42.9083 69.8759C42.6427 70.7363 42.8456 71.6731 43.4435 72.3463V73.8944C43.4435 74.2532 43.7345 74.5442 44.0935 74.5442C44.4523 74.5442 44.7433 74.2532 44.7433 73.8944V73.1522C45.1678 73.2751 45.6185 73.2751 46.043 73.1522V73.8944C46.043 74.2532 46.3339 74.5442 46.693 74.5442C47.0518 74.5442 47.3427 74.2532 47.3427 73.8944V72.3463C47.9407 71.6731 48.1436 70.7363 47.8779 69.8759C47.6123 69.0156 46.9164 68.3564 46.043 68.1377V61.5465C46.043 60.1109 44.8792 58.9471 43.4435 58.9471H42.7935V58.2974C42.7935 56.8617 41.6297 55.6979 40.1941 55.6979H39.5443V55.0479C39.5443 48.9464 34.598 44 28.4965 44C22.3946 44 17.4486 48.9464 17.4486 55.0479V55.6979H16.7986C15.3629 55.6979 14.1991 56.8617 14.1991 58.2974V58.9471H13.5491C12.1137 58.9471 10.9496 60.1109 10.9496 61.5465V68.1377C10.0762 68.3564 9.38036 69.0156 9.1147 69.8759C8.84904 70.7363 9.05193 71.6731 9.64988 72.3463V73.8944ZM46.693 70.645C46.693 71.3628 46.1111 71.9447 45.3933 71.9447C44.6754 71.9447 44.0935 71.3628 44.0935 70.645C44.0935 69.9271 44.6754 69.3452 45.3933 69.3452C46.1111 69.3452 46.693 69.9271 46.693 70.645ZM28.4965 81.6928C25.1607 81.6887 22.3682 79.1627 22.0308 75.8439H34.9633C34.6256 79.163 31.8325 81.6893 28.4965 81.6928ZM40.1941 56.9976C40.9119 56.9976 41.4938 57.5795 41.4938 58.2974V60.8968C41.4938 61.6147 40.9119 62.1966 40.1941 62.1966H39.5443V56.9976H40.1941ZM18.7483 55.0479C18.7483 49.6642 23.1125 45.2997 28.4965 45.2997C33.8801 45.2997 38.2446 49.6642 38.2446 55.0479V62.8463H26.5467C26.1879 62.8463 25.897 63.1375 25.897 63.4963C25.897 63.8551 26.1879 64.1463 26.5467 64.1463H38.2446V65.446H26.5467C26.1879 65.446 25.897 65.737 25.897 66.0957C25.897 66.4548 26.1879 66.7458 26.5467 66.7458H38.2446V72.5944C38.2446 73.6713 37.3718 74.5442 36.2949 74.5442H20.6978C19.6211 74.5442 18.7483 73.6713 18.7483 72.5944V66.7458H20.6978C21.0568 66.7458 21.3478 66.4548 21.3478 66.0957C21.3478 65.737 21.0568 65.446 20.6978 65.446H18.7483V64.1463H20.6978C21.0568 64.1463 21.3478 63.8551 21.3478 63.4963C21.3478 63.1375 21.0568 62.8463 20.6978 62.8463H18.7483V55.0479ZM15.4988 58.2974C15.4988 57.5795 16.0807 56.9976 16.7986 56.9976H17.4486V62.1966H16.7986C16.0807 62.1966 15.4988 61.6147 15.4988 60.8968V58.2974ZM11.5996 69.3452C12.3175 69.3452 12.8994 69.9271 12.8994 70.645C12.8994 71.3628 12.3175 71.9447 11.5996 71.9447C10.8818 71.9447 10.2999 71.3628 10.2999 70.645C10.2999 69.9271 10.8818 69.3452 11.5996 69.3452V69.3452Z" fill="black"/>
</g>
</g>
</g>
<defs>
<clipPath id="clip0">
<rect width="39" height="39" fill="white" transform="translate(9 44)"/>
</clipPath>
</defs>
</svg>
