<svg width="16" height="16" viewBox="0 0 16 16" fill="none" xmlns="http://www.w3.org/2000/svg">
<g id="li-icon" clip-path="url(#clip0)">
<path id="Vector" d="M7.99998 14.8334C11.7739 14.8334 14.8333 11.774 14.8333 8.00002C14.8333 4.22607 11.7739 1.16669 7.99998 1.16669C4.22604 1.16669 1.16666 4.22607 1.16666 8.00002C1.16666 11.774 4.22604 14.8334 7.99998 14.8334Z" fill="#4CAF50"/>
<path id="Vector_2" d="M10.1667 8.5H0.5C0.224 8.5 0 8.276 0 8C0 7.724 0.224 7.5 0.5 7.5H10.1667C10.4427 7.5 10.6667 7.724 10.6667 8C10.6667 8.276 10.4427 8.5 10.1667 8.5Z" fill="black"/>
<path id="Vector_3" d="M7.49999 11.1667C7.37199 11.1667 7.24399 11.118 7.14665 11.02C6.95132 10.8247 6.95132 10.508 7.14665 10.3127L9.46 7.99932L7.14665 5.68599C6.95132 5.49065 6.95132 5.17399 7.14665 4.97865C7.34199 4.78332 7.65866 4.78332 7.85399 4.97865L10.5207 7.64532C10.716 7.84065 10.716 8.15732 10.5207 8.35265L7.85399 11.0193C7.75599 11.118 7.62799 11.1667 7.49999 11.1667Z" fill="black"/>
<path id="Vector_4" d="M8.00001 15.3334C4.96601 15.3334 2.28735 13.508 1.17468 10.6827C1.07335 10.4267 1.20001 10.136 1.45668 10.0347C1.71268 9.93469 2.00401 10.0594 2.10535 10.3174C3.06601 12.7567 5.38001 14.3334 8.00001 14.3334C11.492 14.3334 14.3333 11.492 14.3333 8.00002C14.3333 4.50802 11.492 1.66669 8.00001 1.66669C5.38001 1.66669 3.06601 3.24335 2.10535 5.68269C2.00335 5.94069 1.71268 6.06535 1.45668 5.96535C1.20001 5.86402 1.07335 5.57335 1.17468 5.31735C2.28735 2.49202 4.96601 0.666687 8.00001 0.666687C12.0433 0.666687 15.3333 3.95669 15.3333 8.00002C15.3333 12.0434 12.0433 15.3334 8.00001 15.3334Z" fill="black"/>
</g>
<defs>
<clipPath id="clip0">
<rect width="16" height="16" fill="white"/>
</clipPath>
</defs>
</svg>
