<svg width="59" height="100" viewBox="0 0 59 100" fill="none" xmlns="http://www.w3.org/2000/svg">
<path id="open-door" d="M58.9761 100H9.99434e-05V27.8415C-0.0161795 21.9588 1.95671 16.2249 5.63154 11.4744C5.767 11.3001 5.90212 11.128 6.04147 10.9578C7.81895 8.75665 9.93422 6.81812 12.3174 5.20621C12.4521 5.11373 12.5872 5.02285 12.7244 4.93196C14.7186 3.62895 16.8758 2.56376 19.1469 1.76065C19.2818 1.71238 19.4191 1.66402 19.5564 1.61764C21.6104 0.92555 23.7396 0.451471 25.9046 0.204158C26.0389 0.186846 26.1767 0.173298 26.3145 0.159751C28.4244 -0.0532503 30.5523 -0.0532503 32.6621 0.159751C32.7996 0.173298 32.9374 0.186844 33.0732 0.204343C35.2377 0.451673 37.3663 0.925694 39.4198 1.61765C39.5572 1.66403 39.6945 1.71239 39.8297 1.76075C42.0728 2.55373 44.2046 3.60302 46.1776 4.88521C46.3147 4.97412 46.4519 5.065 46.587 5.15588C47.9229 6.05622 49.1777 7.05926 50.3386 8.15475C51.2695 9.03345 52.137 9.97009 52.9352 10.9584C53.0741 11.128 53.2092 11.3001 53.3444 11.4741C57.0194 16.2246 58.9924 21.9587 58.9761 27.8415V100Z" fill="#F2F2F2"/>
</svg>
